<svg id="Layer_1" data-name="Layer 1" xmlns="http://www.w3.org/2000/svg" viewBox="0 0 570.16 302.88"><defs><style>.cls-1{fill:#db2a2a;}.cls-1,.cls-2{opacity:0.63;}.cls-2{fill:#e07627;}</style></defs><title>8m-logo</title><path class="cls-1" d="M182.65,385.61c0-47.64,39.33-86.2,87.85-86.2s87.85,38.53,87.85,86.17c0,0.17,0,.42,0,0.42h86.38c0-48,39.33-86.26,87.85-86.26S620.42,338,620.42,386h64.65s0-.22,0-0.39c0-83.54-69-151.2-154-151.2A154.6,154.6,0,0,0,400.16,305.9,154.56,154.56,0,0,0,269,234c-85.08,0-154,67.61-154,151.15,0,0.34,0,.9,0,0.9h67.73S182.65,385.78,182.65,385.61Z" transform="translate(-114.92 -233.95)"/><path class="cls-2" d="M269,536.36A154.53,154.53,0,0,0,399.84,465,154.5,154.5,0,0,0,531,536.84c84.91,0,153.76-67.84,154-150.84H620.42c0,48-39.33,86.26-87.85,86.26S444.72,434,444.72,386H358.34c-0.28,47-39.49,85.76-87.84,85.76S182.94,433,182.66,386H114.93C115.48,469,184.23,536.36,269,536.36Z" transform="translate(-114.92 -233.95)"/></svg>